<svg width="160" height="140" viewBox="0 0 160 140" fill="none" xmlns="http://www.w3.org/2000/svg">
    <g clip-path="url(#vzbylkysya)">
        <path d="M18.688 137.654c-.145 1.314-.971 2.231-2.097 2.324-1.16.098-2.184-.574-2.502-1.672-.079-.273-.088-.573-.089-.862-.006-2.477-.019-4.956.009-7.433a2.902 2.902 0 0 0-.518-1.75 2081.09 2081.09 0 0 1-9.764-14.638c-2.725-4.128-2.848-8.375-.429-12.687a691.78 691.78 0 0 1 4.346-7.64c.254-.44.343-.626-.26-.853-4.41-1.677-7.372-5.956-7.375-10.7-.012-23.468-.013-46.935.001-70.4C.013 5.892 4.437.91 9.824.17c.677-.094 1.35-.136 2.031-.136C50.48.035 89.107.067 127.732 0c5.937-.01 10.569 3.813 11.832 8.684.238.919.388 1.847.388 2.801-.003 23.394.003 46.789-.006 70.181-.003 6.487-5.163 11.658-11.634 11.663-12.195.012-24.39.01-36.585-.014-.66 0-.78.175-.774.794.032 3.547.017 7.094.014 10.641 0 1.652-.915 2.599-2.553 2.572-2.16-.035-4.323.142-6.478-.124-3.508-.43-6.529-1.894-9.123-4.275-.125-.115-.246-.233-.372-.348-.011-.01-.039 0-.134 0v.762c0 11.346 0 22.691.006 34.034 0 .598-.074 1.156-.442 1.648-.599.8-1.602 1.162-2.512.898-.996-.289-1.61-1.089-1.738-2.263.007-.292.022-.582.022-.873v-24.634c0-10.957.01-21.913-.004-32.87-.006-5.096-4.207-9.263-9.287-9.267a9.327 9.327 0 0 0-9.365 9.334c-.013 7.653-.003 15.305-.003 22.958 0 1.614-.92 2.682-2.312 2.693-1.423.012-2.35-1.063-2.352-2.726 0-2.746-.017-5.491.015-8.235.007-.573-.146-.713-.715-.713-9.984.019-19.97.019-29.954 0-.519 0-.758.19-.997.612a983.05 983.05 0 0 1-5.267 9.221c-1.566 2.706-1.485 5.341.247 7.937 3.46 5.188 6.91 10.382 10.378 15.564.435.65.653 1.316.647 2.108-.018 2.963.006 5.927.014 8.89v.001zM130.619 18.67c1.357.007 2.713-.003 4.069.034.471.013.614-.118.608-.6-.026-2.254-.011-4.508-.014-6.762 0-.192-.011-.388-.041-.577-.597-3.858-3.989-6.414-7.684-6.04-.169-.01-.338-.024-.509-.024-38.475 0-76.95-.003-115.425.001-3.807 0-6.938 3.14-6.953 6.939-.009 2.04.032 4.081-.019 6.12-.019.736.147.951.926.951 41.439-.021 82.877-.018 124.316-.02.242 0 .484-.015.727-.023l-.001.001zm-3.061 69.973c4.373.426 7.779-3.153 7.756-7.29-.075-13.592-.028-27.185-.028-40.778 0-.146-.015-.294.003-.437.039-.344-.095-.463-.448-.457-1.407.023-2.814.022-4.222.03-.242-.008-.484-.023-.726-.023H32.889c-9.158 0-18.317.006-27.475-.015-.595 0-.783.124-.761.745.05 1.407.016 2.817.016 4.227 0 12.39-.006 24.78.005 37.169.003 3.58 3.089 6.826 6.6 6.838 10.836.038 21.67.013 32.505.03.474 0 .554-.157.55-.583-.02-1.87-.02-3.74-.006-5.612.012-1.771-.1-3.547.159-5.31 1.11-7.547 8.457-12.89 16.034-11.667 6.771 1.092 11.767 6.942 11.793 13.82.011 2.843.025 5.686-.015 8.527-.009.66.159.829.825.829 17.905-.02 35.808-.017 53.713-.018.242 0 .484-.015.728-.023l-.002-.002zM70.052 23.36H56.935c-17.125 0-34.25.006-51.374-.019-.761 0-.919.216-.91.933.038 3.255.016 6.51.016 9.765 0 .654.323.982.97.983H111.59c7.627 0 15.254-.009 22.881-.016.397 0 .815.125.809-.57-.027-3.498-.02-6.996-.004-10.494.001-.455-.156-.579-.591-.576-1.725.015-3.448-.007-5.173-.007H70.05l.002.001zm9.324 69.982c-2.087 0-4.172.013-6.258-.01-.49-.006-.56.12-.433.576.907 3.245 2.82 5.683 5.76 7.331 2.332 1.308 4.865 1.505 7.461 1.427.495-.014.387-.316.387-.584.003-2.717-.01-5.433.013-8.15.004-.476-.126-.607-.602-.602-2.11.027-4.22.012-6.33.012h.002z" fill="#231F20"/>
        <path d="M18.688 137.654c-.009-2.963-.032-5.927-.013-8.89.005-.79-.213-1.458-.648-2.108-3.468-5.182-6.92-10.375-10.378-15.563-1.732-2.597-1.812-5.232-.247-7.938a972.351 972.351 0 0 0 5.267-9.22c.24-.423.477-.614.997-.613 9.985.02 19.97.02 29.954 0 .569 0 .722.14.715.713-.032 2.746-.015 5.491-.015 8.235 0 1.664.929 2.738 2.352 2.727 1.394-.012 2.313-1.079 2.313-2.693 0-7.654-.01-15.305.002-22.959a9.327 9.327 0 0 1 9.365-9.334c5.082.003 9.28 4.171 9.287 9.267.014 10.957.004 21.913.004 32.87v24.634c0 .292-.014.582-.022.874H18.688v-.002z" fill="#F8AB96"/>
        <path d="M127.558 88.643c-.242.01-.484.024-.727.024-17.905 0-35.808-.003-53.713.017-.665 0-.834-.166-.825-.828.038-2.842.024-5.685.014-8.527-.026-6.879-5.021-12.728-11.792-13.82-7.578-1.222-14.923 4.121-16.035 11.667-.26 1.763-.145 3.538-.158 5.31-.014 1.87-.015 3.741.005 5.612.005.424-.075.582-.55.582-10.834-.016-21.669.008-32.504-.03-3.513-.011-6.597-3.257-6.6-6.838-.012-12.389-.006-24.78-.006-37.168 0-1.409.035-2.82-.016-4.227-.023-.621.166-.747.761-.745 9.158.02 18.318.015 27.476.015h97.003c.242 0 .484.014.726.023 0 10.21.002 20.417 0 30.626 0 .235.076.49-.119.694-.716-3.387-3.478-5.58-6.575-5.66-3.298-.086-6.602-.069-9.901-.006-3.628.069-6.646 3.171-6.722 6.795-.081 3.898 3.026 7.132 6.939 7.172 3.155.032 6.311.006 9.466.006.56 0 1.111-.086 1.646-.238 2.793-.793 4.475-2.646 5.147-5.449.207.23.118.51.119.766.006 2.47-.004 4.941.009 7.41.003.66-.103 1.297-.246 1.931-.433 1.92-1.441 3.511-2.822 4.886zm-87.96-30.296h23.104c1.665 0 2.608-.95 2.61-2.622.002-2.94.004-5.879 0-8.818-.003-1.575-.971-2.552-2.534-2.552-15.402-.003-30.803-.003-46.206 0-1.615 0-2.57.963-2.573 2.584-.005 2.866 0 5.733 0 8.6 0 1.921.88 2.81 2.789 2.81h22.81v-.002zm50.929 20.987c2.064 0 3.692.032 5.319-.008 3.703-.088 6.742-3.193 6.784-6.89.044-3.834-3.043-7.035-6.885-7.084-3.01-.036-6.021-.005-9.03-.011-.56 0-1.11.042-1.663.134-3.246.54-5.75 3.53-5.743 6.878.007 3.356 2.512 6.329 5.77 6.845 1.956.31 3.926.038 5.45.134l-.002.002zm-62.51-4.66c-3.863 0-7.726-.006-11.586.003-1.397.003-2.449 1.042-2.431 2.356.018 1.283 1.062 2.282 2.419 2.302.68.01 1.36.002 2.04.002H39.37c1.2 0 2.08-.534 2.448-1.476.617-1.575-.523-3.18-2.29-3.186-3.838-.011-7.675-.004-11.513-.003v.002zm-.029-4.666c3.863 0 7.725.007 11.586-.004 1.356-.005 2.4-1.025 2.413-2.307.012-1.283-1.026-2.347-2.368-2.349-7.748-.01-15.497-.006-23.245-.004-.607 0-1.142.2-1.592.606-.727.653-.961 1.603-.632 2.518.331.919 1.203 1.536 2.253 1.537 3.862.009 7.725.003 11.585.003zM130.619 18.67c-.242.008-.484.024-.728.024-41.439 0-82.876 0-124.315.02-.78 0-.944-.216-.926-.95.052-2.039.011-4.08.019-6.121.014-3.8 3.146-6.94 6.953-6.94 38.475-.004 76.95-.002 115.425 0 .169 0 .338.015.509.023.11.126.217.26.333.38 1.782 1.862 2.728 4.067 2.728 6.659v6.905h.002z" fill="#6B9CD3"/>
        <path d="M70.052 23.36h59.462c1.725 0 3.45.021 5.173.007.434-.005.593.12.59.576-.016 3.497-.023 6.995.005 10.493.006.696-.413.57-.809.57-7.627.006-15.254.015-22.881.016-35.319.002-70.637 0-105.954 0-.646 0-.97-.327-.97-.983 0-3.254.023-6.51-.015-9.764-.01-.717.148-.935.91-.933 17.124.025 34.249.019 51.374.019h13.116l-.001-.002z" fill="#59595B"/>
        <path d="M127.558 88.643c1.381-1.373 2.389-2.967 2.822-4.886.143-.632.249-1.271.246-1.93-.013-2.47-.001-4.941-.009-7.411 0-.257.088-.537-.119-.766a7.659 7.659 0 0 0 0-2.62c.195-.204.119-.46.119-.694.003-10.21.002-20.417 0-30.626 1.407-.007 2.816-.006 4.223-.03.353-.007.487.113.447.457-.016.144-.002.292-.002.436 0 13.593-.047 27.187.027 40.779.022 4.135-3.382 7.716-7.755 7.29l.001.001z" fill="#4C7EC0"/>
        <path d="M79.376 93.341c2.11 0 4.221.015 6.33-.012.475-.005.604.126.602.603-.024 2.716-.01 5.432-.014 8.149 0 .268.108.57-.386.584-2.597.078-5.13-.119-7.462-1.427-2.94-1.648-4.853-4.086-5.76-7.331-.126-.456-.058-.582.433-.576 2.085.023 4.172.01 6.258.01h-.001z" fill="#F8AB96"/>
        <path d="M130.619 18.67v-6.905c0-2.592-.946-4.797-2.728-6.659-.117-.122-.223-.254-.334-.38 3.695-.374 7.087 2.182 7.684 6.04.029.191.039.385.041.578.003 2.254-.011 4.508.014 6.762.006.483-.137.612-.608.6-1.356-.037-2.713-.027-4.069-.034v-.002z" fill="#4C7EC0"/>
        <path d="M39.599 58.347H16.788c-1.909 0-2.79-.888-2.79-2.812 0-2.866-.002-5.733 0-8.6.002-1.62.959-2.583 2.574-2.583h46.206c1.563 0 2.53.979 2.534 2.552.005 2.94.002 5.879 0 8.818-.002 1.672-.945 2.622-2.61 2.622H39.599v.003zm.051-4.67c6.776 0 13.551-.005 20.327.014.526.002.708-.093.682-.662a44.664 44.664 0 0 1-.004-3.423c.014-.474-.116-.608-.595-.6-1.748.031-3.497.014-5.246.014-11.828 0-23.654.002-35.482-.014-.523 0-.711.09-.684.66.054 1.092.054 2.188 0 3.279-.03.605.137.752.745.75 6.751-.024 13.503-.016 20.254-.016l.003-.001zM90.527 79.334c-1.522-.095-3.492.176-5.449-.135-3.258-.516-5.763-3.489-5.77-6.845-.008-3.348 2.497-6.337 5.743-6.878a9.948 9.948 0 0 1 1.662-.134c3.01.005 6.022-.026 9.03.012 3.843.047 6.93 3.25 6.886 7.083-.042 3.698-3.083 6.802-6.785 6.89-1.625.04-3.252.008-5.318.008l.001-.001zm.395-4.663c1.528 0 3.055.007 4.583-.002 1.407-.007 2.454-1.003 2.458-2.32.006-1.319-1.038-2.33-2.44-2.335-3.03-.009-6.06-.007-9.092 0-1.412.003-2.453.996-2.456 2.315-.003 1.324 1.036 2.33 2.437 2.34 1.504.01 3.007.003 4.51.003v-.001zM130.498 71.03a7.634 7.634 0 0 1 0 2.62c-.672 2.803-2.353 4.656-5.147 5.449a6.026 6.026 0 0 1-1.646.238c-3.155 0-6.311.024-9.466-.006-3.913-.04-7.02-3.275-6.939-7.172.076-3.624 3.093-6.726 6.722-6.795 3.3-.063 6.603-.08 9.902.006 3.096.08 5.858 2.273 6.574 5.66zm-11.538 3.64h2.255c.75 0 1.503.004 2.254 0 1.418-.01 2.468-.982 2.483-2.294.014-1.352-1.037-2.36-2.488-2.364-3.006-.005-6.013-.005-9.019 0-1.422.003-2.464.977-2.482 2.292-.017 1.348 1.035 2.357 2.486 2.364 1.503.007 3.007.001 4.51.003h.001zM28.016 74.674c3.838 0 7.675-.009 11.513.004 1.767.006 2.907 1.611 2.29 3.186-.368.942-1.247 1.475-2.447 1.475H18.459c-.68 0-1.36.01-2.04-.001-1.357-.02-2.401-1.02-2.419-2.302-.017-1.314 1.034-2.353 2.43-2.356 3.863-.01 7.726-.003 11.586-.003v-.003zM27.989 70.008c-3.863 0-7.725.006-11.586-.003-1.05-.003-1.922-.618-2.253-1.537-.33-.915-.094-1.865.632-2.518a2.31 2.31 0 0 1 1.592-.606c7.748 0 15.497-.006 23.246.004 1.34.002 2.38 1.066 2.367 2.349-.011 1.282-1.057 2.302-2.413 2.307-3.862.011-7.724.004-11.585.004z" fill="#231F20"/>
        <path d="M39.65 53.68c-6.75 0-13.503-.01-20.253.015-.61.003-.776-.144-.746-.75.054-1.091.053-2.188 0-3.278-.027-.57.162-.66.684-.66 11.828.015 23.654.011 35.482.012 1.748 0 3.498.018 5.246-.013.48-.008.61.126.595.6a44.665 44.665 0 0 0 .004 3.423c.026.567-.156.663-.682.662-6.776-.019-13.551-.013-20.327-.012h-.003zM90.922 74.67c-1.503 0-3.006.008-4.51-.002-1.4-.01-2.439-1.016-2.437-2.34.003-1.32 1.044-2.313 2.456-2.316 3.032-.007 6.062-.007 9.093 0 1.401.005 2.445 1.017 2.44 2.336-.007 1.317-1.052 2.311-2.46 2.32-1.527.009-3.054.001-4.582.001v.002zM118.961 74.67c-1.504 0-3.007.007-4.51-.002-1.451-.007-2.505-1.015-2.486-2.364.017-1.316 1.061-2.289 2.481-2.292 3.007-.005 6.013-.005 9.02 0 1.451.003 2.502 1.012 2.487 2.364-.014 1.312-1.064 2.285-2.483 2.293-.751.006-1.503.002-2.254.002h-2.255z" fill="#FCFCFC"/>
    </g>
    <circle cx="136" cy="92" r="24" fill="#fff"/>
    <path fill-rule="evenodd" clip-rule="evenodd" d="M116 92c0-11.04 8.96-20 20-20s20 8.96 20 20-8.96 20-20 20-20-8.96-20-20zm29.85-6.785-13.132 13.133-5.501-5.54a1.508 1.508 0 0 0-1.104-.465c-.427 0-.795.155-1.105.465-.309.31-.471.678-.484 1.104-.013.426.136.794.446 1.104l6.663 6.663c.31.31.671.465 1.085.465.413 0 .774-.155 1.084-.465l14.257-14.256a1.51 1.51 0 0 0 .464-1.104 1.51 1.51 0 0 0-.464-1.104 1.51 1.51 0 0 0-1.105-.465c-.426 0-.794.155-1.104.465z" fill="#2E7D32"/>
    <defs>
        <clipPath id="vzbylkysya">
            <path fill="#fff" d="M0 0h139.952v140H0z"/>
        </clipPath>
    </defs>
</svg>
