<svg width="40" height="40" viewBox="0 0 40 40" fill="none" xmlns="http://www.w3.org/2000/svg">
    <g clip-path="url(#i1al1e6j6a)">
        <mask id="4662469fgb" style="mask-type:alpha" maskUnits="userSpaceOnUse" x="0" y="0" width="40" height="40">
            <path fill="#D9D9D9" d="M0 0h40v40H0z"/>
        </mask>
        <g mask="url(#4662469fgb)">
            <path d="M6.667 30V16.666v.542V10v20zm0-16.667h26.666V10H6.667v3.333zm12.791 20H6.667a3.21 3.21 0 0 1-2.355-.979A3.21 3.21 0 0 1 3.333 30V10c0-.917.327-1.702.98-2.354a3.21 3.21 0 0 1 2.354-.98h26.666a3.21 3.21 0 0 1 2.355.98A3.21 3.21 0 0 1 36.666 10v8.75a11.33 11.33 0 0 0-3.25-1.563 12.496 12.496 0 0 0-3.584-.52c-1.5 0-2.944.291-4.333.874A11.35 11.35 0 0 0 21.833 20H6.667v10h11.791a11.539 11.539 0 0 0 1 3.333z" fill="#016179"/>
        </g>
        <path fill-rule="evenodd" clip-rule="evenodd" d="M21.667 28.333C21.667 23.733 25.4 20 30 20s8.333 3.733 8.333 8.333S34.6 36.667 30 36.667a8.336 8.336 0 0 1-8.333-8.334zm8.925.58a.787.787 0 0 1-.592.254.784.784 0 0 1-.59-.255.838.838 0 0 1-.243-.599v-3.272c0-.244.08-.451.243-.62a.785.785 0 0 1 .59-.254c.233 0 .43.084.592.253.161.17.242.37.242.6v3.273c0 .244-.081.45-.242.62zm.004 3.341A.795.795 0 0 1 30 32.5a.795.795 0 0 1-.595-.245.824.824 0 0 1-.238-.598.813.813 0 0 1 .833-.824c.238 0 .437.082.596.245a.804.804 0 0 1 .238.579c0 .235-.08.434-.238.598z" fill="#016179"/>
    </g>
    <defs>
        <clipPath id="i1al1e6j6a">
            <path fill="#fff" d="M0 0h40v40H0z"/>
        </clipPath>
    </defs>
</svg>
