<svg width="40" height="40" viewBox="0 0 40 40" fill="none" xmlns="http://www.w3.org/2000/svg">
    <path d="M8.333 27.917v-8.333c0-.472.16-.868.48-1.188.319-.319.715-.479 1.187-.479.472 0 .868.16 1.188.48.319.319.479.715.479 1.187v8.333c0 .473-.16.868-.48 1.188-.319.32-.715.479-1.187.479-.472 0-.868-.16-1.187-.48-.32-.319-.48-.714-.48-1.187zm10 0v-8.333c0-.472.16-.868.48-1.188.319-.319.715-.479 1.187-.479.472 0 .868.16 1.188.48.319.319.479.715.479 1.187v8.333c0 .473-.16.868-.48 1.188-.319.32-.715.479-1.187.479-.472 0-.868-.16-1.188-.48-.319-.319-.479-.714-.479-1.187zM5 36.251c-.472 0-.868-.16-1.187-.48-.32-.319-.48-.715-.48-1.187 0-.472.16-.868.48-1.188.319-.319.715-.479 1.187-.479h30c.472 0 .868.16 1.188.48.319.319.479.715.479 1.187 0 .472-.16.868-.48 1.188-.319.319-.715.479-1.187.479H5zm23.333-8.334v-8.333c0-.472.16-.868.48-1.188.319-.319.715-.479 1.187-.479.472 0 .868.16 1.188.48.319.319.479.715.479 1.187v8.333c0 .473-.16.868-.48 1.188-.319.32-.715.479-1.187.479-.472 0-.868-.16-1.188-.48-.319-.319-.479-.714-.479-1.187zM35 14.584H4.833c-.416 0-.77-.146-1.062-.438a1.447 1.447 0 0 1-.438-1.062v-.917c0-.305.077-.57.23-.791.152-.223.354-.403.604-.542L18.5 3.667a3.48 3.48 0 0 1 1.5-.333 3.48 3.48 0 0 1 1.5.333l14.25 7.125c.306.14.535.348.688.625.152.278.229.57.229.875v.625c0 .473-.16.868-.48 1.188-.319.32-.715.479-1.187.479zm-24.25-3.333h18.5L20 6.667l-9.25 4.584z" fill="#016179"/>
</svg>
